<svg width="51" height="50" viewBox="0 0 51 50" fill="none" xmlns="http://www.w3.org/2000/svg">
<path d="M5.54 46.7905H46.47C47.32 46.7905 48.01 46.1005 48.01 45.2505V39.7505C48.01 38.9005 47.32 38.2105 46.47 38.2105C45.62 38.2105 44.93 37.5205 44.93 36.6705V7.77047C44.93 6.92047 44.24 6.23047 43.39 6.23047H5.54C4.69 6.23047 4 6.92047 4 7.77047V27.4705C4 28.3205 4.69 29.0105 5.54 29.0105H14.62C15.47 29.0105 16.16 28.3205 16.16 27.4705V20.6105C16.16 19.7605 16.85 19.0705 17.7 19.0705H29.85C30.7 19.0705 31.39 19.7605 31.39 20.6105V35.7905C31.39 36.6405 30.7 37.3305 29.85 37.3305H5.54C4.69 37.3305 4 38.0205 4 38.8705V45.2705C4 46.1205 4.69 46.8105 5.54 46.8105V46.7905Z" stroke="#0F0D1A" stroke-linecap="round" stroke-linejoin="round"/>
<path d="M10.7808 6.24023V17.5402C10.7808 18.3902 10.0908 19.0802 9.24078 19.0802H8.09078C7.24078 19.0802 6.55078 18.3902 6.55078 17.5402V6.24023" stroke="#0F0D1A" stroke-linecap="round" stroke-linejoin="round"/>
<path d="M11.4209 29.0098V31.4398C11.4209 32.2898 10.7309 32.9798 9.88094 32.9798H9.50094C8.65094 32.9798 7.96094 32.2898 7.96094 31.4398V29.0098" stroke="#0F0D1A" stroke-linecap="round" stroke-linejoin="round"/>
<path d="M9.69141 32.9805V35.3205" stroke="#0F0D1A" stroke-linecap="square" stroke-linejoin="round"/>
<path d="M44.9414 16.3398H46.4814C47.3314 16.3398 48.0214 17.0298 48.0214 17.8798V23.5998C48.0214 24.4498 47.3314 25.1398 46.4814 25.1398H44.9414" stroke="#0F0D1A" stroke-linecap="round" stroke-linejoin="round"/>
<path d="M4 41.2891H48.01" stroke="#0F0D1A" stroke-linecap="round" stroke-linejoin="round"/>
<path d="M38.0605 33.5494C39.8996 33.5494 41.3905 30.093 41.3905 25.8294C41.3905 21.5657 39.8996 18.1094 38.0605 18.1094C36.2214 18.1094 34.7305 21.5657 34.7305 25.8294C34.7305 30.093 36.2214 33.5494 38.0605 33.5494Z" stroke="#0F0D1A" stroke-linecap="round" stroke-linejoin="round"/>
<path d="M15.8281 10.3906H36.1681" stroke="#0F0D1A" stroke-linecap="square" stroke-linejoin="round"/>
<path d="M20.8281 14.6602H41.1681" stroke="#0F0D1A" stroke-linecap="square" stroke-linejoin="round"/>
<path d="M4 22.6699H15.83" stroke="#0F0D1A" stroke-linecap="round" stroke-linejoin="round"/>
<path d="M32.9102 3.5V6.24" stroke="#0F0D1A" stroke-linecap="square" stroke-linejoin="round"/>
<path d="M26 3.5V6.24" stroke="#0F0D1A" stroke-linecap="square" stroke-linejoin="round"/>
<path d="M39.5703 2.5V6.24" stroke="#0F0D1A" stroke-linecap="square" stroke-linejoin="round"/>
</svg>
