<svg width="52" height="50" viewBox="0 0 52 50" fill="none" xmlns="http://www.w3.org/2000/svg">
<path d="M7.16675 25C7.16675 14.5066 15.6733 6 26.1667 6C36.6601 6 45.1667 14.5066 45.1667 25C45.1667 35.4934 36.6601 44 26.1667 44C22.1299 44 18.3871 42.7411 15.3096 40.5944" stroke="#0F0D1A" stroke-linecap="round" stroke-linejoin="round"/>
<path d="M4.16675 22L6.93598 25L10.1667 22.5" stroke="black"/>
<path d="M26.3432 34L17.9462 29.2085C17.4642 28.9335 17.1667 28.4211 17.1667 27.8662V21.2365M26.3432 34L34.41 29.2127C34.8791 28.9343 35.1667 28.4292 35.1667 27.8837V20.9091M26.3432 34V26.1455M17.1667 21.2365L26.3432 26.1455M17.1667 21.2365L22.3285 18.2909M35.1667 20.9091L27.1041 16.4235C26.6317 16.1607 26.0564 16.1638 25.5868 16.4317L22.3285 18.2909M35.1667 20.9091L30.7549 23.5273M26.3432 26.1455L30.7549 23.5273M22.3285 18.2909L30.7549 23.5273" stroke="#0F0D1A"/>
</svg>
