<svg width="26" height="17" viewBox="0 0 26 17" xmlns="http://www.w3.org/2000/svg">
<path d="M3.62484 10.0625L2.84359 8.49996H8.31234L7.68734 6.93746H2.58317L1.80192 5.37496H9.92692L9.30192 3.81246H1.65609L0.760254 2.24996H4.6665C4.6665 1.69742 4.886 1.16752 5.2767 0.77682C5.6674 0.386119 6.1973 0.166626 6.74984 0.166626H19.2498V4.33329H22.3748L25.4998 8.49996V13.7083H23.4165C23.4165 14.5371 23.0873 15.332 22.5012 15.918C21.9152 16.5041 21.1203 16.8333 20.2915 16.8333C19.4627 16.8333 18.6678 16.5041 18.0818 15.918C17.4957 15.332 17.1665 14.5371 17.1665 13.7083H12.9998C12.9998 14.5371 12.6706 15.332 12.0845 15.918C11.4985 16.5041 10.7036 16.8333 9.87484 16.8333C9.04604 16.8333 8.25118 16.5041 7.66513 15.918C7.07908 15.332 6.74984 14.5371 6.74984 13.7083H4.6665V10.0625H3.62484ZM20.2915 15.2708C20.7059 15.2708 21.1033 15.1062 21.3964 14.8131C21.6894 14.5201 21.854 14.1227 21.854 13.7083C21.854 13.2939 21.6894 12.8965 21.3964 12.6034C21.1033 12.3104 20.7059 12.1458 20.2915 12.1458C19.8771 12.1458 19.4797 12.3104 19.1866 12.6034C18.8936 12.8965 18.729 13.2939 18.729 13.7083C18.729 14.1227 18.8936 14.5201 19.1866 14.8131C19.4797 15.1062 19.8771 15.2708 20.2915 15.2708ZM21.854 5.89579H19.2498V8.49996H23.8957L21.854 5.89579ZM9.87484 15.2708C10.2892 15.2708 10.6867 15.1062 10.9797 14.8131C11.2727 14.5201 11.4373 14.1227 11.4373 13.7083C11.4373 13.2939 11.2727 12.8965 10.9797 12.6034C10.6867 12.3104 10.2892 12.1458 9.87484 12.1458C9.46044 12.1458 9.06301 12.3104 8.76998 12.6034C8.47696 12.8965 8.31234 13.2939 8.31234 13.7083C8.31234 14.1227 8.47696 14.5201 8.76998 14.8131C9.06301 15.1062 9.46044 15.2708 9.87484 15.2708Z"/>
</svg>
